<?xml version="1.0" encoding="UTF-8"?><svg xmlns="http://www.w3.org/2000/svg" xmlns:xlink="http://www.w3.org/1999/xlink" fill-opacity="1" color-rendering="auto" color-interpolation="auto" text-rendering="auto" stroke="black" stroke-linecap="square" width="824" stroke-miterlimit="10" shape-rendering="auto" stroke-opacity="1" fill="black" stroke-dasharray="none" font-weight="normal" stroke-width="1" height="373" font-family="'Dialog'" font-style="normal" stroke-linejoin="miter" font-size="12px" stroke-dashoffset="0" image-rendering="auto">
  <!--Generated by ySVG 2.6-->
  <defs id="genericDefs"/>
  <g>
    <defs id="defs1">
      <clipPath clipPathUnits="userSpaceOnUse" id="clipPath1">
        <path d="M0 0 L824 0 L824 373 L0 373 L0 0 Z"/>
      </clipPath>
      <clipPath clipPathUnits="userSpaceOnUse" id="clipPath2">
        <path d="M356 138 L1180 138 L1180 511 L356 511 L356 138 Z"/>
      </clipPath>
      <clipPath clipPathUnits="userSpaceOnUse" id="clipPath3">
        <path d="M603 426.3865 L603 447.4656 L789 447.4656 L789 426.3865 Z"/>
      </clipPath>
      <clipPath clipPathUnits="userSpaceOnUse" id="clipPath4">
        <path d="M603 190.8089 L603 211.888 L789 211.888 L789 190.8089 Z"/>
      </clipPath>
      <clipPath clipPathUnits="userSpaceOnUse" id="clipPath5">
        <path d="M603 235.4554 L603 253.8089 L789 253.8089 L789 235.4554 Z"/>
      </clipPath>
      <clipPath clipPathUnits="userSpaceOnUse" id="clipPath6">
        <path d="M976.5 426.3865 L976.5 447.4656 L1162.5 447.4656 L1162.5 426.3865 Z"/>
      </clipPath>
    </defs>
    <g fill="white" text-rendering="geometricPrecision" shape-rendering="geometricPrecision" transform="translate(-356,-138)" stroke="white">
      <rect x="356" width="824" height="373" y="138" clip-path="url(#clipPath2)" stroke="none"/>
    </g>
    <g fill="rgb(67,141,213)" text-rendering="geometricPrecision" shape-rendering="geometricPrecision" transform="matrix(1,0,0,1,-356,-138)" stroke="rgb(67,141,213)">
      <rect x="601" width="190" height="106" y="389.3865" clip-path="url(#clipPath2)" stroke="none"/>
    </g>
    <g stroke-linecap="butt" transform="matrix(1,0,0,1,-356,-138)" fill="rgb(60,127,192)" text-rendering="geometricPrecision" shape-rendering="geometricPrecision" stroke="rgb(60,127,192)" stroke-miterlimit="1.45">
      <rect fill="none" x="601" width="190" height="106" y="389.3865" clip-path="url(#clipPath2)"/>
    </g>
    <g fill="white" text-rendering="geometricPrecision" shape-rendering="geometricPrecision" transform="matrix(1,0,0,1,-356,-138)" stroke="white">
      <path d="M648.5991 441.6238 L645.021 431.6082 L647.2085 431.6082 L649.7397 439.0145 L652.1929 431.6082 L654.3491 431.6082 L650.7554 441.6238 L648.5991 441.6238 ZM659.562 439.3113 L661.4839 439.6395 Q661.1089 440.6863 660.312 441.2488 Q659.5151 441.7957 658.3276 441.7957 Q656.437 441.7957 655.5151 440.5457 Q654.7964 439.5613 654.7964 438.0457 Q654.7964 436.2488 655.7339 435.2332 Q656.687 434.202 658.1401 434.202 Q659.7495 434.202 660.687 435.2801 Q661.6245 436.3426 661.5776 438.5457 L656.7651 438.5457 Q656.7964 439.4051 657.2339 439.8895 Q657.687 440.3582 658.3433 440.3582 Q658.7964 440.3582 659.0933 440.1082 Q659.4058 439.8582 659.562 439.3113 ZM659.6714 437.3738 Q659.6558 436.5301 659.2495 436.1082 Q658.8433 435.6707 658.2495 435.6707 Q657.6245 435.6707 657.2026 436.1238 Q656.7964 436.5926 656.812 437.3738 L659.6714 437.3738 ZM664.9888 441.6238 L663.0669 441.6238 L663.0669 434.3582 L664.8481 434.3582 L664.8481 435.3895 Q665.3169 434.6707 665.6763 434.4363 Q666.0356 434.202 666.5044 434.202 Q667.1606 434.202 667.77 434.5613 L667.1763 436.2332 Q666.6919 435.9207 666.27 435.9207 Q665.8638 435.9207 665.5825 436.1551 Q665.3169 436.3738 665.145 436.952 Q664.9888 437.5301 664.9888 439.3738 L664.9888 441.6238 ZM668.5933 433.3738 L668.5933 431.6082 L670.5151 431.6082 L670.5151 433.3738 L668.5933 433.3738 ZM668.5933 441.6238 L668.5933 434.3582 L670.5151 434.3582 L670.5151 441.6238 L668.5933 441.6238 ZM671.6548 434.3582 L672.7173 434.3582 L672.7173 433.8113 Q672.7173 432.9051 672.9048 432.452 Q673.1079 431.9988 673.6235 431.7176 Q674.1548 431.4363 674.9517 431.4363 Q675.7642 431.4363 676.561 431.6707 L676.2954 433.0145 Q675.8423 432.9051 675.4204 432.9051 Q674.9985 432.9051 674.811 433.1082 Q674.6392 433.2957 674.6392 433.8582 L674.6392 434.3582 L676.0767 434.3582 L676.0767 435.8738 L674.6392 435.8738 L674.6392 441.6238 L672.7173 441.6238 L672.7173 435.8738 L671.6548 435.8738 L671.6548 434.3582 ZM677.145 433.3738 L677.145 431.6082 L679.0669 431.6082 L679.0669 433.3738 L677.145 433.3738 ZM677.145 441.6238 L677.145 434.3582 L679.0669 434.3582 L679.0669 441.6238 L677.145 441.6238 ZM685.2378 439.3113 L687.1597 439.6395 Q686.7847 440.6863 685.9878 441.2488 Q685.1909 441.7957 684.0034 441.7957 Q682.1128 441.7957 681.1909 440.5457 Q680.4722 439.5613 680.4722 438.0457 Q680.4722 436.2488 681.4097 435.2332 Q682.3628 434.202 683.8159 434.202 Q685.4253 434.202 686.3628 435.2801 Q687.3003 436.3426 687.2534 438.5457 L682.4409 438.5457 Q682.4722 439.4051 682.9097 439.8895 Q683.3628 440.3582 684.019 440.3582 Q684.4722 440.3582 684.769 440.1082 Q685.0815 439.8582 685.2378 439.3113 ZM685.3472 437.3738 Q685.3315 436.5301 684.9253 436.1082 Q684.519 435.6707 683.9253 435.6707 Q683.3003 435.6707 682.8784 436.1238 Q682.4722 436.5926 682.4878 437.3738 L685.3472 437.3738 ZM690.6646 441.6238 L688.7427 441.6238 L688.7427 434.3582 L690.5239 434.3582 L690.5239 435.3895 Q690.9927 434.6707 691.3521 434.4363 Q691.7114 434.202 692.1802 434.202 Q692.8364 434.202 693.4458 434.5613 L692.8521 436.2332 Q692.3677 435.9207 691.9458 435.9207 Q691.5396 435.9207 691.2583 436.1551 Q690.9927 436.3738 690.8208 436.952 Q690.6646 437.5301 690.6646 439.3738 L690.6646 441.6238 ZM697.6587 438.3582 L699.6274 438.1707 Q699.8149 439.1551 700.3462 439.6238 Q700.8931 440.0926 701.8149 440.0926 Q702.7993 440.0926 703.2837 439.6863 Q703.7837 439.2645 703.7837 438.7176 Q703.7837 438.3582 703.5806 438.1082 Q703.3774 437.8582 702.8462 437.6707 Q702.5024 437.5457 701.2368 437.2332 Q699.6118 436.827 698.9556 436.2488 Q698.0337 435.4207 698.0337 434.2332 Q698.0337 433.4676 698.4556 432.7957 Q698.8931 432.1238 699.7056 431.7801 Q700.5337 431.4363 701.6899 431.4363 Q703.5649 431.4363 704.5181 432.2645 Q705.4712 433.0926 705.5337 434.4676 L703.5024 434.5613 Q703.3774 433.7801 702.9399 433.452 Q702.5181 433.1082 701.6587 433.1082 Q700.7837 433.1082 700.2837 433.4676 Q699.9556 433.702 699.9556 434.0926 Q699.9556 434.452 700.2681 434.702 Q700.6431 435.0145 702.1118 435.3738 Q703.5962 435.7176 704.2993 436.0926 Q705.0181 436.4676 705.4087 437.1082 Q705.8149 437.7488 705.8149 438.702 Q705.8149 439.5613 705.3306 440.327 Q704.8618 441.077 703.9868 441.4363 Q703.1118 441.7957 701.7993 441.7957 Q699.8931 441.7957 698.8774 440.9207 Q697.8618 440.0457 697.6587 438.3582 ZM711.6997 439.3113 L713.6216 439.6395 Q713.2466 440.6863 712.4497 441.2488 Q711.6528 441.7957 710.4653 441.7957 Q708.5747 441.7957 707.6528 440.5457 Q706.9341 439.5613 706.9341 438.0457 Q706.9341 436.2488 707.8716 435.2332 Q708.8247 434.202 710.2778 434.202 Q711.8872 434.202 712.8247 435.2801 Q713.7622 436.3426 713.7153 438.5457 L708.9028 438.5457 Q708.9341 439.4051 709.3716 439.8895 Q709.8247 440.3582 710.481 440.3582 Q710.9341 440.3582 711.231 440.1082 Q711.5435 439.8582 711.6997 439.3113 ZM711.8091 437.3738 Q711.7935 436.5301 711.3872 436.1082 Q710.981 435.6707 710.3872 435.6707 Q709.7622 435.6707 709.3403 436.1238 Q708.9341 436.5926 708.9497 437.3738 L711.8091 437.3738 ZM717.1265 441.6238 L715.2046 441.6238 L715.2046 434.3582 L716.9858 434.3582 L716.9858 435.3895 Q717.4546 434.6707 717.814 434.4363 Q718.1733 434.202 718.6421 434.202 Q719.2983 434.202 719.9077 434.5613 L719.314 436.2332 Q718.8296 435.9207 718.4077 435.9207 Q718.0015 435.9207 717.7202 436.1551 Q717.4546 436.3738 717.2827 436.952 Q717.1265 437.5301 717.1265 439.3738 L717.1265 441.6238 ZM722.731 441.6238 L719.8091 434.3582 L721.8247 434.3582 L723.1841 438.0613 L723.5903 439.3113 Q723.7466 438.827 723.7778 438.6863 Q723.8872 438.3738 723.9966 438.0613 L725.3716 434.3582 L727.3403 434.3582 L724.4653 441.6238 L722.731 441.6238 ZM728.5171 433.3738 L728.5171 431.6082 L730.439 431.6082 L730.439 433.3738 L728.5171 433.3738 ZM728.5171 441.6238 L728.5171 434.3582 L730.439 434.3582 L730.439 441.6238 L728.5171 441.6238 ZM738.7349 436.5145 L736.8442 436.8582 Q736.7505 436.2801 736.4067 435.9988 Q736.0786 435.7176 735.5317 435.7176 Q734.813 435.7176 734.3911 436.2176 Q733.9692 436.702 733.9692 437.8582 Q733.9692 439.1551 734.3911 439.6863 Q734.8286 440.2176 735.563 440.2176 Q736.1099 440.2176 736.4536 439.9051 Q736.813 439.5926 736.9536 438.8426 L738.8442 439.1551 Q738.5474 440.4676 737.7036 441.1395 Q736.8755 441.7957 735.4692 441.7957 Q733.8755 441.7957 732.9224 440.7957 Q731.9849 439.7801 731.9849 437.9988 Q731.9849 436.202 732.938 435.202 Q733.8911 434.202 735.5161 434.202 Q736.8286 434.202 737.6099 434.7801 Q738.4067 435.3426 738.7349 436.5145 ZM744.396 439.3113 L746.3179 439.6395 Q745.9429 440.6863 745.146 441.2488 Q744.3491 441.7957 743.1616 441.7957 Q741.271 441.7957 740.3491 440.5457 Q739.6304 439.5613 739.6304 438.0457 Q739.6304 436.2488 740.5679 435.2332 Q741.521 434.202 742.9741 434.202 Q744.5835 434.202 745.521 435.2801 Q746.4585 436.3426 746.4116 438.5457 L741.5991 438.5457 Q741.6304 439.4051 742.0679 439.8895 Q742.521 440.3582 743.1772 440.3582 Q743.6304 440.3582 743.9272 440.1082 Q744.2397 439.8582 744.396 439.3113 ZM744.5054 437.3738 Q744.4897 436.5301 744.0835 436.1082 Q743.6772 435.6707 743.0835 435.6707 Q742.4585 435.6707 742.0366 436.1238 Q741.6304 436.5926 741.646 437.3738 L744.5054 437.3738 Z" stroke="none" clip-path="url(#clipPath3)"/>
      <text stroke-linecap="butt" x="650.6396" y="419.4471" clip-path="url(#clipPath2)" font-family="sans-serif" stroke="none" stroke-miterlimit="1.45" xml:space="preserve">&lt;&lt;API Service&gt;&gt;</text>
      <rect x="601" y="153.8089" clip-path="url(#clipPath2)" fill="rgb(67,141,213)" width="190" height="106" stroke="none"/>
    </g>
    <g stroke-linecap="butt" transform="matrix(1,0,0,1,-356,-138)" fill="rgb(60,127,192)" text-rendering="geometricPrecision" shape-rendering="geometricPrecision" stroke="rgb(60,127,192)" stroke-miterlimit="1.45">
      <rect fill="none" x="601" width="190" height="106" y="153.8089" clip-path="url(#clipPath2)"/>
    </g>
    <g fill="white" text-rendering="geometricPrecision" shape-rendering="geometricPrecision" transform="matrix(1,0,0,1,-356,-138)" stroke="white">
      <path d="M684.7754 202.3587 L686.7285 202.9837 Q686.2754 204.6244 685.2285 205.4212 Q684.1816 206.2181 682.5723 206.2181 Q680.5723 206.2181 679.2754 204.8587 Q677.9941 203.4837 677.9941 201.1244 Q677.9941 198.6244 679.291 197.2494 Q680.5879 195.8587 682.6973 195.8587 Q684.5254 195.8587 685.6816 196.9369 Q686.3691 197.5775 686.6973 198.7806 L684.6973 199.265 Q684.5254 198.4837 683.9629 198.0306 Q683.4004 197.5775 682.5879 197.5775 Q681.4785 197.5775 680.7754 198.39 Q680.0879 199.1869 680.0879 200.9681 Q680.0879 202.8744 680.7598 203.6869 Q681.4473 204.4837 682.541 204.4837 Q683.3535 204.4837 683.9316 203.9837 Q684.5098 203.4681 684.7754 202.3587 ZM697.5107 206.0462 L695.3076 206.0462 L694.4326 203.765 L690.417 203.765 L689.5889 206.0462 L687.4482 206.0462 L691.3545 196.0306 L693.4951 196.0306 L697.5107 206.0462 ZM693.7764 202.0775 L692.4014 198.3587 L691.042 202.0775 L693.7764 202.0775 ZM698.5117 198.7806 L700.293 198.7806 L700.293 199.8587 Q700.6523 199.3119 701.2461 198.9681 Q701.8398 198.6244 702.5586 198.6244 Q703.8242 198.6244 704.6992 199.6244 Q705.5898 200.6087 705.5898 202.3744 Q705.5898 204.1869 704.6992 205.2025 Q703.8086 206.2181 702.543 206.2181 Q701.9492 206.2181 701.4492 205.9837 Q700.9648 205.7337 700.4336 205.1556 L700.4336 208.8119 L698.5117 208.8119 L698.5117 198.7806 ZM700.4023 202.2962 Q700.4023 203.515 700.8867 204.1087 Q701.3867 204.6869 702.0742 204.6869 Q702.7461 204.6869 703.1836 204.1556 Q703.6367 203.6087 703.6367 202.39 Q703.6367 201.2494 703.168 200.7025 Q702.7148 200.14 702.043 200.14 Q701.3398 200.14 700.8711 200.6869 Q700.4023 201.2337 700.4023 202.2962 ZM707.0635 198.7806 L708.8447 198.7806 L708.8447 199.8587 Q709.2041 199.3119 709.7979 198.9681 Q710.3916 198.6244 711.1104 198.6244 Q712.376 198.6244 713.251 199.6244 Q714.1416 200.6087 714.1416 202.3744 Q714.1416 204.1869 713.251 205.2025 Q712.3604 206.2181 711.0947 206.2181 Q710.501 206.2181 710.001 205.9837 Q709.5166 205.7337 708.9854 205.1556 L708.9854 208.8119 L707.0635 208.8119 L707.0635 198.7806 ZM708.9541 202.2962 Q708.9541 203.515 709.4385 204.1087 Q709.9385 204.6869 710.626 204.6869 Q711.2979 204.6869 711.7354 204.1556 Q712.1885 203.6087 712.1885 202.39 Q712.1885 201.2494 711.7197 200.7025 Q711.2666 200.14 710.5947 200.14 Q709.8916 200.14 709.4229 200.6869 Q708.9541 201.2337 708.9541 202.2962 Z" stroke="none" clip-path="url(#clipPath4)"/>
      <text stroke-linecap="butt" x="651.9668" y="183.8695" clip-path="url(#clipPath2)" font-family="sans-serif" stroke="none" stroke-miterlimit="1.45" xml:space="preserve">&lt;&lt;Mobile App&gt;&gt;</text>
      <path d="M641.3633 245.5004 L642.4883 245.7972 Q642.1289 247.1879 641.207 247.9222 Q640.2852 248.6566 638.9414 248.6566 Q637.5508 248.6566 636.6758 248.0941 Q635.8008 247.5316 635.3477 246.4691 Q634.8945 245.391 634.8945 244.1566 Q634.8945 242.8129 635.4102 241.8129 Q635.9258 240.8129 636.8633 240.2972 Q637.8164 239.7816 638.957 239.7816 Q640.2383 239.7816 641.1133 240.4379 Q642.0039 241.0941 642.3477 242.2816 L641.2227 242.5472 Q640.9258 241.6097 640.3477 241.1879 Q639.7852 240.7504 638.9258 240.7504 Q637.9414 240.7504 637.2695 241.2347 Q636.6133 241.7035 636.332 242.5004 Q636.0664 243.2972 636.0664 244.1566 Q636.0664 245.2504 636.3789 246.0629 Q636.707 246.8754 637.3789 247.2816 Q638.0508 247.6879 638.8477 247.6879 Q639.8008 247.6879 640.457 247.141 Q641.1289 246.5941 641.3633 245.5004 ZM648.0137 246.516 L649.1074 246.641 Q648.8574 247.5941 648.1543 248.1254 Q647.4512 248.6566 646.373 248.6566 Q645.0137 248.6566 644.2012 247.8129 Q643.4043 246.9691 643.4043 245.4535 Q643.4043 243.891 644.2168 243.0316 Q645.0293 242.1566 646.3105 242.1566 Q647.5605 242.1566 648.3418 243.0004 Q649.1387 243.8441 649.1387 245.391 Q649.1387 245.4847 649.1387 245.6722 L644.498 245.6722 Q644.5605 246.7035 645.0762 247.2504 Q645.5918 247.7816 646.373 247.7816 Q646.9512 247.7816 647.3574 247.4847 Q647.7793 247.1722 648.0137 246.516 ZM644.5605 244.8129 L648.0293 244.8129 Q647.9668 244.016 647.6387 243.6254 Q647.123 243.016 646.3262 243.016 Q645.5918 243.016 645.0918 243.5004 Q644.6074 243.9847 644.5605 244.8129 ZM650.4219 248.516 L650.4219 242.2972 L651.375 242.2972 L651.375 243.2347 Q651.7344 242.5785 652.0312 242.3754 Q652.3438 242.1566 652.7188 242.1566 Q653.25 242.1566 653.7969 242.4847 L653.4375 243.4691 Q653.0469 243.2347 652.6719 243.2347 Q652.3125 243.2347 652.0312 243.4535 Q651.7656 243.6566 651.6562 244.0316 Q651.4688 244.5941 651.4688 245.2504 L651.4688 248.516 L650.4219 248.516 ZM656.7305 247.5785 L656.8867 248.5004 Q656.4336 248.5941 656.0898 248.5941 Q655.5117 248.5941 655.1992 248.4222 Q654.8867 248.2347 654.7461 247.9379 Q654.6211 247.641 654.6211 246.6879 L654.6211 243.1097 L653.8555 243.1097 L653.8555 242.2972 L654.6211 242.2972 L654.6211 240.7504 L655.668 240.1254 L655.668 242.2972 L656.7305 242.2972 L656.7305 243.1097 L655.668 243.1097 L655.668 246.7504 Q655.668 247.2035 655.7148 247.3285 Q655.7773 247.4535 655.9023 247.5316 Q656.0273 247.6097 656.2617 247.6097 Q656.4492 247.6097 656.7305 247.5785 ZM657.7676 241.141 L657.7676 239.9222 L658.8301 239.9222 L658.8301 241.141 L657.7676 241.141 ZM657.7676 248.516 L657.7676 242.2972 L658.8301 242.2972 L658.8301 248.516 L657.7676 248.516 ZM660.6836 248.516 L660.6836 243.1097 L659.7461 243.1097 L659.7461 242.2972 L660.6836 242.2972 L660.6836 241.6254 Q660.6836 241.0004 660.793 240.7035 Q660.9492 240.2816 661.3242 240.0316 Q661.7148 239.7816 662.4023 239.7816 Q662.8555 239.7816 663.3867 239.891 L663.2305 240.7972 Q662.9023 240.7504 662.6055 240.7504 Q662.1211 240.7504 661.918 240.9535 Q661.7305 241.1566 661.7305 241.7191 L661.7305 242.2972 L662.9492 242.2972 L662.9492 243.1097 L661.7305 243.1097 L661.7305 248.516 L660.6836 248.516 ZM663.7676 241.141 L663.7676 239.9222 L664.8301 239.9222 L664.8301 241.141 L663.7676 241.141 ZM663.7676 248.516 L663.7676 242.2972 L664.8301 242.2972 L664.8301 248.516 L663.7676 248.516 ZM670.6836 246.516 L671.7773 246.641 Q671.5273 247.5941 670.8242 248.1254 Q670.1211 248.6566 669.043 248.6566 Q667.6836 248.6566 666.8711 247.8129 Q666.0742 246.9691 666.0742 245.4535 Q666.0742 243.891 666.8867 243.0316 Q667.6992 242.1566 668.9805 242.1566 Q670.2305 242.1566 671.0117 243.0004 Q671.8086 243.8441 671.8086 245.391 Q671.8086 245.4847 671.8086 245.6722 L667.168 245.6722 Q667.2305 246.7035 667.7461 247.2504 Q668.2617 247.7816 669.043 247.7816 Q669.6211 247.7816 670.0273 247.4847 Q670.4492 247.1722 670.6836 246.516 ZM667.2305 244.8129 L670.6992 244.8129 Q670.6367 244.016 670.3086 243.6254 Q669.793 243.016 668.9961 243.016 Q668.2617 243.016 667.7617 243.5004 Q667.2773 243.9847 667.2305 244.8129 ZM677.1387 248.516 L677.1387 247.7347 Q676.5449 248.6566 675.4043 248.6566 Q674.6543 248.6566 674.0293 248.2504 Q673.4043 247.8285 673.0605 247.0941 Q672.7168 246.3597 672.7168 245.4066 Q672.7168 244.4847 673.0293 243.7191 Q673.3418 242.9535 673.9668 242.5629 Q674.5918 242.1566 675.3574 242.1566 Q675.9199 242.1566 676.3574 242.391 Q676.7949 242.6254 677.0762 243.0004 L677.0762 239.9222 L678.123 239.9222 L678.123 248.516 L677.1387 248.516 ZM673.8105 245.4066 Q673.8105 246.6097 674.3105 247.2035 Q674.8105 247.7816 675.498 247.7816 Q676.1855 247.7816 676.6699 247.2191 Q677.1543 246.6566 677.1543 245.5004 Q677.1543 244.2191 676.6543 243.6254 Q676.1699 243.0316 675.4512 243.0316 Q674.748 243.0316 674.2793 243.6097 Q673.8105 244.1722 673.8105 245.4066 ZM682.3027 248.516 L685.5996 239.9222 L686.8184 239.9222 L690.334 248.516 L689.0527 248.516 L688.0371 245.9066 L684.459 245.9066 L683.5059 248.516 L682.3027 248.516 ZM684.7871 244.9847 L687.6934 244.9847 L686.8027 242.6097 Q686.3809 241.5316 686.1934 240.8285 Q686.0215 241.6566 685.7246 242.4691 L684.7871 244.9847 ZM691.1191 250.9066 L691.1191 242.2972 L692.0723 242.2972 L692.0723 243.0941 Q692.416 242.6254 692.8379 242.391 Q693.2754 242.1566 693.8848 242.1566 Q694.6816 242.1566 695.291 242.5629 Q695.9004 242.9691 696.1973 243.7191 Q696.5098 244.4691 696.5098 245.3597 Q696.5098 246.3129 696.166 247.0785 Q695.8379 247.8441 695.1816 248.2504 Q694.5254 248.6566 693.8066 248.6566 Q693.2754 248.6566 692.8535 248.4379 Q692.4316 248.2035 692.166 247.8754 L692.166 250.9066 L691.1191 250.9066 ZM692.0723 245.4379 Q692.0723 246.641 692.5566 247.2191 Q693.041 247.7816 693.7285 247.7816 Q694.4316 247.7816 694.9316 247.1879 Q695.4316 246.5941 695.4316 245.3441 Q695.4316 244.1566 694.9473 243.5785 Q694.4629 242.9847 693.7754 242.9847 Q693.1035 242.9847 692.5879 243.6097 Q692.0723 244.2347 692.0723 245.4379 ZM697.793 250.9066 L697.793 242.2972 L698.7461 242.2972 L698.7461 243.0941 Q699.0898 242.6254 699.5117 242.391 Q699.9492 242.1566 700.5586 242.1566 Q701.3555 242.1566 701.9648 242.5629 Q702.5742 242.9691 702.8711 243.7191 Q703.1836 244.4691 703.1836 245.3597 Q703.1836 246.3129 702.8398 247.0785 Q702.5117 247.8441 701.8555 248.2504 Q701.1992 248.6566 700.4805 248.6566 Q699.9492 248.6566 699.5273 248.4379 Q699.1055 248.2035 698.8398 247.8754 L698.8398 250.9066 L697.793 250.9066 ZM698.7461 245.4379 Q698.7461 246.641 699.2305 247.2191 Q699.7148 247.7816 700.4023 247.7816 Q701.1055 247.7816 701.6055 247.1879 Q702.1055 246.5941 702.1055 245.3441 Q702.1055 244.1566 701.6211 243.5785 Q701.1367 242.9847 700.4492 242.9847 Q699.7773 242.9847 699.2617 243.6097 Q698.7461 244.2347 698.7461 245.4379 ZM708.0508 248.516 L708.0508 243.1097 L707.1133 243.1097 L707.1133 242.2972 L708.0508 242.2972 L708.0508 241.6254 Q708.0508 241.0004 708.1602 240.7035 Q708.3164 240.2816 708.6914 240.0316 Q709.082 239.7816 709.7695 239.7816 Q710.2227 239.7816 710.7539 239.891 L710.5977 240.7972 Q710.2695 240.7504 709.9727 240.7504 Q709.4883 240.7504 709.2852 240.9535 Q709.0977 241.1566 709.0977 241.7191 L709.0977 242.2972 L710.3164 242.2972 L710.3164 243.1097 L709.0977 243.1097 L709.0977 248.516 L708.0508 248.516 ZM710.7441 245.4066 Q710.7441 243.6722 711.6973 242.8441 Q712.4941 242.1566 713.6504 242.1566 Q714.9316 242.1566 715.7441 243.0004 Q716.5723 243.8285 716.5723 245.3129 Q716.5723 246.516 716.2129 247.2035 Q715.8535 247.891 715.1504 248.2816 Q714.4629 248.6566 713.6504 248.6566 Q712.3535 248.6566 711.541 247.8285 Q710.7441 246.9847 710.7441 245.4066 ZM711.8223 245.4066 Q711.8223 246.5941 712.3379 247.1879 Q712.8691 247.7816 713.6504 247.7816 Q714.4473 247.7816 714.9629 247.1879 Q715.4785 246.5941 715.4785 245.3754 Q715.4785 244.2191 714.9473 243.6254 Q714.4316 243.0316 713.6504 243.0316 Q712.8691 243.0316 712.3379 243.6254 Q711.8223 244.2035 711.8223 245.4066 ZM717.793 248.516 L717.793 242.2972 L718.7461 242.2972 L718.7461 243.2347 Q719.1055 242.5785 719.4023 242.3754 Q719.7148 242.1566 720.0898 242.1566 Q720.6211 242.1566 721.168 242.4847 L720.8086 243.4691 Q720.418 243.2347 720.043 243.2347 Q719.6836 243.2347 719.4023 243.4535 Q719.1367 243.6566 719.0273 244.0316 Q718.8398 244.5941 718.8398 245.2504 L718.8398 248.516 L717.793 248.516 ZM725.1387 248.516 L725.1387 239.9222 L726.1855 239.9222 L726.1855 243.0004 Q726.9199 242.1566 728.0449 242.1566 Q728.748 242.1566 729.248 242.4379 Q729.7637 242.7035 729.9824 243.1879 Q730.2012 243.6566 730.2012 244.5785 L730.2012 248.516 L729.1543 248.516 L729.1543 244.5785 Q729.1543 243.7816 728.8105 243.4222 Q728.4668 243.0629 727.8418 243.0629 Q727.373 243.0629 726.9512 243.3129 Q726.5449 243.5472 726.3574 243.9691 Q726.1855 244.3754 726.1855 245.1097 L726.1855 248.516 L725.1387 248.516 ZM731.4219 245.4066 Q731.4219 243.6722 732.375 242.8441 Q733.1719 242.1566 734.3281 242.1566 Q735.6094 242.1566 736.4219 243.0004 Q737.25 243.8285 737.25 245.3129 Q737.25 246.516 736.8906 247.2035 Q736.5312 247.891 735.8281 248.2816 Q735.1406 248.6566 734.3281 248.6566 Q733.0312 248.6566 732.2188 247.8285 Q731.4219 246.9847 731.4219 245.4066 ZM732.5 245.4066 Q732.5 246.5941 733.0156 247.1879 Q733.5469 247.7816 734.3281 247.7816 Q735.125 247.7816 735.6406 247.1879 Q736.1562 246.5941 736.1562 245.3754 Q736.1562 244.2191 735.625 243.6254 Q735.1094 243.0316 734.3281 243.0316 Q733.5469 243.0316 733.0156 243.6254 Q732.5 244.2035 732.5 245.4066 ZM738.4551 248.516 L738.4551 239.9222 L739.5176 239.9222 L739.5176 248.516 L738.4551 248.516 ZM745.1836 248.516 L745.1836 247.7347 Q744.5898 248.6566 743.4492 248.6566 Q742.6992 248.6566 742.0742 248.2504 Q741.4492 247.8285 741.1055 247.0941 Q740.7617 246.3597 740.7617 245.4066 Q740.7617 244.4847 741.0742 243.7191 Q741.3867 242.9535 742.0117 242.5629 Q742.6367 242.1566 743.4023 242.1566 Q743.9648 242.1566 744.4023 242.391 Q744.8398 242.6254 745.1211 243.0004 L745.1211 239.9222 L746.168 239.9222 L746.168 248.516 L745.1836 248.516 ZM741.8555 245.4066 Q741.8555 246.6097 742.3555 247.2035 Q742.8555 247.7816 743.543 247.7816 Q744.2305 247.7816 744.7148 247.2191 Q745.1992 246.6566 745.1992 245.5004 Q745.1992 244.2191 744.6992 243.6254 Q744.2148 243.0316 743.4961 243.0316 Q742.793 243.0316 742.3242 243.6097 Q741.8555 244.1722 741.8555 245.4066 ZM752.0762 246.516 L753.1699 246.641 Q752.9199 247.5941 752.2168 248.1254 Q751.5137 248.6566 750.4355 248.6566 Q749.0762 248.6566 748.2637 247.8129 Q747.4668 246.9691 747.4668 245.4535 Q747.4668 243.891 748.2793 243.0316 Q749.0918 242.1566 750.373 242.1566 Q751.623 242.1566 752.4043 243.0004 Q753.2012 243.8441 753.2012 245.391 Q753.2012 245.4847 753.2012 245.6722 L748.5605 245.6722 Q748.623 246.7035 749.1387 247.2504 Q749.6543 247.7816 750.4355 247.7816 Q751.0137 247.7816 751.4199 247.4847 Q751.8418 247.1722 752.0762 246.516 ZM748.623 244.8129 L752.0918 244.8129 Q752.0293 244.016 751.7012 243.6254 Q751.1855 243.016 750.3887 243.016 Q749.6543 243.016 749.1543 243.5004 Q748.6699 243.9847 748.623 244.8129 ZM754.4844 248.516 L754.4844 242.2972 L755.4375 242.2972 L755.4375 243.2347 Q755.7969 242.5785 756.0938 242.3754 Q756.4062 242.1566 756.7812 242.1566 Q757.3125 242.1566 757.8594 242.4847 L757.5 243.4691 Q757.1094 243.2347 756.7344 243.2347 Q756.375 243.2347 756.0938 243.4535 Q755.8281 243.6566 755.7188 244.0316 Q755.5312 244.5941 755.5312 245.2504 L755.5312 248.516 L754.4844 248.516 Z" clip-path="url(#clipPath5)" stroke="none"/>
    </g>
    <g fill="rgb(232,238,247)" text-rendering="geometricPrecision" shape-rendering="geometricPrecision" transform="matrix(1,0,0,1,-356,-138)" stroke="rgb(232,238,247)">
      <path d="M378.905 312 L466 312 L458.095 343 L371 343 Z" stroke="none" clip-path="url(#clipPath2)"/>
    </g>
    <g text-rendering="geometricPrecision" stroke-miterlimit="1.45" shape-rendering="geometricPrecision" transform="matrix(1,0,0,1,-356,-138)" stroke-linecap="butt">
      <path fill="none" d="M378.905 312 L466 312 L458.095 343 L371 343 Z" clip-path="url(#clipPath2)"/>
      <text x="389.8271" xml:space="preserve" y="332.5801" clip-path="url(#clipPath2)" font-family="sans-serif" stroke="none">VerifyOffer</text>
    </g>
    <g fill="rgb(67,141,213)" text-rendering="geometricPrecision" shape-rendering="geometricPrecision" transform="matrix(1,0,0,1,-356,-138)" stroke="rgb(67,141,213)">
      <rect x="974.5" width="190" height="106" y="389.3865" clip-path="url(#clipPath2)" stroke="none"/>
    </g>
    <g stroke-linecap="butt" transform="matrix(1,0,0,1,-356,-138)" fill="rgb(60,127,192)" text-rendering="geometricPrecision" shape-rendering="geometricPrecision" stroke="rgb(60,127,192)" stroke-miterlimit="1.45">
      <rect fill="none" x="974.5" width="190" height="106" y="389.3865" clip-path="url(#clipPath2)"/>
    </g>
    <g fill="white" text-rendering="geometricPrecision" shape-rendering="geometricPrecision" transform="matrix(1,0,0,1,-356,-138)" stroke="white">
      <path d="M1016.7744 441.6238 L1016.7744 433.2957 L1013.79 433.2957 L1013.79 431.6082 L1021.7588 431.6082 L1021.7588 433.2957 L1018.79 433.2957 L1018.79 441.6238 L1016.7744 441.6238 ZM1024.8887 441.6238 L1022.9668 441.6238 L1022.9668 434.3582 L1024.748 434.3582 L1024.748 435.3895 Q1025.2168 434.6707 1025.5762 434.4363 Q1025.9355 434.202 1026.4043 434.202 Q1027.0605 434.202 1027.6699 434.5613 L1027.0762 436.2332 Q1026.5918 435.9207 1026.1699 435.9207 Q1025.7637 435.9207 1025.4824 436.1551 Q1025.2168 436.3738 1025.0449 436.952 Q1024.8887 437.5301 1024.8887 439.3738 L1024.8887 441.6238 ZM1033.2744 441.6238 L1033.2744 440.5301 Q1032.8838 441.1238 1032.2275 441.4676 Q1031.5869 441.7957 1030.8682 441.7957 Q1030.1338 441.7957 1029.5557 441.4676 Q1028.9775 441.1395 1028.7119 440.5613 Q1028.4619 439.9832 1028.4619 438.952 L1028.4619 434.3582 L1030.3838 434.3582 L1030.3838 437.702 Q1030.3838 439.2332 1030.4775 439.577 Q1030.5869 439.9207 1030.8682 440.1238 Q1031.1494 440.327 1031.5869 440.327 Q1032.0713 440.327 1032.4619 440.0613 Q1032.8525 439.7801 1032.9932 439.3895 Q1033.1338 438.9832 1033.1338 437.4207 L1033.1338 434.3582 L1035.0557 434.3582 L1035.0557 441.6238 L1033.2744 441.6238 ZM1036.373 439.5457 L1038.2949 439.2645 Q1038.4199 439.8113 1038.7949 440.1082 Q1039.1699 440.4051 1039.8574 440.4051 Q1040.5918 440.4051 1040.9668 440.1238 Q1041.2324 439.9363 1041.2324 439.6082 Q1041.2324 439.3895 1041.0918 439.2488 Q1040.9512 439.1082 1040.4512 438.9988 Q1038.123 438.4832 1037.498 438.0613 Q1036.6387 437.4676 1036.6387 436.4207 Q1036.6387 435.4832 1037.373 434.8426 Q1038.123 434.202 1039.7012 434.202 Q1041.1855 434.202 1041.9043 434.6863 Q1042.6387 435.1707 1042.9043 436.1238 L1041.0918 436.452 Q1040.9824 436.0301 1040.6543 435.8113 Q1040.3262 435.577 1039.7324 435.577 Q1038.9668 435.577 1038.6387 435.7957 Q1038.4199 435.9363 1038.4199 436.1863 Q1038.4199 436.3895 1038.623 436.5301 Q1038.873 436.7176 1040.4043 437.077 Q1041.9512 437.4207 1042.5605 437.9207 Q1043.1543 438.4363 1043.1543 439.3582 Q1043.1543 440.3582 1042.3105 441.077 Q1041.4824 441.7957 1039.8574 441.7957 Q1038.373 441.7957 1037.498 441.1863 Q1036.6387 440.577 1036.373 439.5457 ZM1048.1592 434.3582 L1048.1592 435.8895 L1046.8467 435.8895 L1046.8467 438.827 Q1046.8467 439.702 1046.8779 439.8582 Q1046.9248 439.9988 1047.0498 440.1082 Q1047.1904 440.202 1047.3936 440.202 Q1047.6592 440.202 1048.1592 440.0145 L1048.3154 441.4988 Q1047.6592 441.7957 1046.7998 441.7957 Q1046.2842 441.7957 1045.8623 441.6238 Q1045.4561 441.4363 1045.2529 441.1707 Q1045.0654 440.8895 1044.9873 440.4207 Q1044.9248 440.077 1044.9248 439.0613 L1044.9248 435.8895 L1044.0498 435.8895 L1044.0498 434.3582 L1044.9248 434.3582 L1044.9248 432.9207 L1046.8467 431.7957 L1046.8467 434.3582 L1048.1592 434.3582 ZM1053.4141 441.6238 L1053.4141 431.6082 L1057.6641 431.6082 Q1059.2734 431.6082 1059.9922 431.8738 Q1060.7266 432.1395 1061.1641 432.8426 Q1061.6016 433.5301 1061.6016 434.4051 Q1061.6016 435.5457 1060.9297 436.2801 Q1060.2734 437.0145 1058.9609 437.202 Q1059.6172 437.577 1060.0391 438.0457 Q1060.4766 438.4988 1061.1953 439.6707 L1062.4141 441.6238 L1059.9922 441.6238 L1058.5391 439.4363 Q1057.7578 438.2801 1057.4609 437.9832 Q1057.1797 437.6707 1056.8516 437.5613 Q1056.5391 437.4363 1055.8359 437.4363 L1055.4297 437.4363 L1055.4297 441.6238 L1053.4141 441.6238 ZM1055.4297 435.8426 L1056.9297 435.8426 Q1058.3828 435.8426 1058.7422 435.7176 Q1059.1172 435.5926 1059.3203 435.2957 Q1059.5234 434.9988 1059.5234 434.5457 Q1059.5234 434.0301 1059.2422 433.7332 Q1058.9766 433.4207 1058.4922 433.327 Q1058.2422 433.2957 1057.0078 433.2957 L1055.4297 433.2957 L1055.4297 435.8426 ZM1067.6963 439.3113 L1069.6182 439.6395 Q1069.2432 440.6863 1068.4463 441.2488 Q1067.6494 441.7957 1066.4619 441.7957 Q1064.5713 441.7957 1063.6494 440.5457 Q1062.9307 439.5613 1062.9307 438.0457 Q1062.9307 436.2488 1063.8682 435.2332 Q1064.8213 434.202 1066.2744 434.202 Q1067.8838 434.202 1068.8213 435.2801 Q1069.7588 436.3426 1069.7119 438.5457 L1064.8994 438.5457 Q1064.9307 439.4051 1065.3682 439.8895 Q1065.8213 440.3582 1066.4775 440.3582 Q1066.9307 440.3582 1067.2275 440.1082 Q1067.54 439.8582 1067.6963 439.3113 ZM1067.8057 437.3738 Q1067.79 436.5301 1067.3838 436.1082 Q1066.9775 435.6707 1066.3838 435.6707 Q1065.7588 435.6707 1065.3369 436.1238 Q1064.9307 436.5926 1064.9463 437.3738 L1067.8057 437.3738 ZM1071.2324 434.3582 L1073.0137 434.3582 L1073.0137 435.4363 Q1073.373 434.8895 1073.9668 434.5457 Q1074.5605 434.202 1075.2793 434.202 Q1076.5449 434.202 1077.4199 435.202 Q1078.3105 436.1863 1078.3105 437.952 Q1078.3105 439.7645 1077.4199 440.7801 Q1076.5293 441.7957 1075.2637 441.7957 Q1074.6699 441.7957 1074.1699 441.5613 Q1073.6855 441.3113 1073.1543 440.7332 L1073.1543 444.3895 L1071.2324 444.3895 L1071.2324 434.3582 ZM1073.123 437.8738 Q1073.123 439.0926 1073.6074 439.6863 Q1074.1074 440.2645 1074.7949 440.2645 Q1075.4668 440.2645 1075.9043 439.7332 Q1076.3574 439.1863 1076.3574 437.9676 Q1076.3574 436.827 1075.8887 436.2801 Q1075.4355 435.7176 1074.7637 435.7176 Q1074.0605 435.7176 1073.5918 436.2645 Q1073.123 436.8113 1073.123 437.8738 ZM1079.3936 437.8895 Q1079.3936 436.9363 1079.8623 436.0457 Q1080.3311 435.1395 1081.1904 434.6707 Q1082.0654 434.202 1083.1279 434.202 Q1084.7842 434.202 1085.8311 435.2801 Q1086.8779 436.3426 1086.8779 437.9676 Q1086.8779 439.6238 1085.8154 440.7176 Q1084.7529 441.7957 1083.1436 441.7957 Q1082.1436 441.7957 1081.2373 441.3426 Q1080.3311 440.8895 1079.8623 440.0145 Q1079.3936 439.1395 1079.3936 437.8895 ZM1081.3623 437.9988 Q1081.3623 439.077 1081.8779 439.6551 Q1082.3936 440.2176 1083.1436 440.2176 Q1083.8936 440.2176 1084.3936 439.6551 Q1084.9092 439.077 1084.9092 437.9832 Q1084.9092 436.9207 1084.3936 436.3426 Q1083.8936 435.7645 1083.1436 435.7645 Q1082.3936 435.7645 1081.8779 436.3426 Q1081.3623 436.9207 1081.3623 437.9988 ZM1087.7109 439.5457 L1089.6328 439.2645 Q1089.7578 439.8113 1090.1328 440.1082 Q1090.5078 440.4051 1091.1953 440.4051 Q1091.9297 440.4051 1092.3047 440.1238 Q1092.5703 439.9363 1092.5703 439.6082 Q1092.5703 439.3895 1092.4297 439.2488 Q1092.2891 439.1082 1091.7891 438.9988 Q1089.4609 438.4832 1088.8359 438.0613 Q1087.9766 437.4676 1087.9766 436.4207 Q1087.9766 435.4832 1088.7109 434.8426 Q1089.4609 434.202 1091.0391 434.202 Q1092.5234 434.202 1093.2422 434.6863 Q1093.9766 435.1707 1094.2422 436.1238 L1092.4297 436.452 Q1092.3203 436.0301 1091.9922 435.8113 Q1091.6641 435.577 1091.0703 435.577 Q1090.3047 435.577 1089.9766 435.7957 Q1089.7578 435.9363 1089.7578 436.1863 Q1089.7578 436.3895 1089.9609 436.5301 Q1090.2109 436.7176 1091.7422 437.077 Q1093.2891 437.4207 1093.8984 437.9207 Q1094.4922 438.4363 1094.4922 439.3582 Q1094.4922 440.3582 1093.6484 441.077 Q1092.8203 441.7957 1091.1953 441.7957 Q1089.7109 441.7957 1088.8359 441.1863 Q1087.9766 440.577 1087.7109 439.5457 ZM1096.1689 433.3738 L1096.1689 431.6082 L1098.0908 431.6082 L1098.0908 433.3738 L1096.1689 433.3738 ZM1096.1689 441.6238 L1096.1689 434.3582 L1098.0908 434.3582 L1098.0908 441.6238 L1096.1689 441.6238 ZM1103.3867 434.3582 L1103.3867 435.8895 L1102.0742 435.8895 L1102.0742 438.827 Q1102.0742 439.702 1102.1055 439.8582 Q1102.1523 439.9988 1102.2773 440.1082 Q1102.418 440.202 1102.6211 440.202 Q1102.8867 440.202 1103.3867 440.0145 L1103.543 441.4988 Q1102.8867 441.7957 1102.0273 441.7957 Q1101.5117 441.7957 1101.0898 441.6238 Q1100.6836 441.4363 1100.4805 441.1707 Q1100.293 440.8895 1100.2148 440.4207 Q1100.1523 440.077 1100.1523 439.0613 L1100.1523 435.8895 L1099.2773 435.8895 L1099.2773 434.3582 L1100.1523 434.3582 L1100.1523 432.9207 L1102.0742 431.7957 L1102.0742 434.3582 L1103.3867 434.3582 ZM1104.2832 437.8895 Q1104.2832 436.9363 1104.752 436.0457 Q1105.2207 435.1395 1106.0801 434.6707 Q1106.9551 434.202 1108.0176 434.202 Q1109.6738 434.202 1110.7207 435.2801 Q1111.7676 436.3426 1111.7676 437.9676 Q1111.7676 439.6238 1110.7051 440.7176 Q1109.6426 441.7957 1108.0332 441.7957 Q1107.0332 441.7957 1106.127 441.3426 Q1105.2207 440.8895 1104.752 440.0145 Q1104.2832 439.1395 1104.2832 437.8895 ZM1106.252 437.9988 Q1106.252 439.077 1106.7676 439.6551 Q1107.2832 440.2176 1108.0332 440.2176 Q1108.7832 440.2176 1109.2832 439.6551 Q1109.7988 439.077 1109.7988 437.9832 Q1109.7988 436.9207 1109.2832 436.3426 Q1108.7832 435.7645 1108.0332 435.7645 Q1107.2832 435.7645 1106.7676 436.3426 Q1106.252 436.9207 1106.252 437.9988 ZM1115.1162 441.6238 L1113.1943 441.6238 L1113.1943 434.3582 L1114.9756 434.3582 L1114.9756 435.3895 Q1115.4443 434.6707 1115.8037 434.4363 Q1116.1631 434.202 1116.6318 434.202 Q1117.2881 434.202 1117.8975 434.5613 L1117.3037 436.2332 Q1116.8193 435.9207 1116.3975 435.9207 Q1115.9912 435.9207 1115.71 436.1551 Q1115.4443 436.3738 1115.2725 436.952 Q1115.1162 437.5301 1115.1162 439.3738 L1115.1162 441.6238 ZM1117.8145 434.3582 L1119.8613 434.3582 L1121.5957 439.5145 L1123.2988 434.3582 L1125.2832 434.3582 L1122.7207 441.3426 L1122.2676 442.6082 Q1122.002 443.2488 1121.7676 443.577 Q1121.5488 443.9207 1121.252 444.1238 Q1120.9551 444.3426 1120.5176 444.452 Q1120.0801 444.577 1119.5332 444.577 Q1118.9863 444.577 1118.4551 444.452 L1118.2832 442.952 Q1118.7363 443.0457 1119.0957 443.0457 Q1119.7676 443.0457 1120.0801 442.6395 Q1120.4082 442.2488 1120.5801 441.6395 L1117.8145 434.3582 Z" stroke="none" clip-path="url(#clipPath6)"/>
      <text stroke-linecap="butt" x="1026.4688" y="419.4471" clip-path="url(#clipPath2)" font-family="sans-serif" stroke="none" stroke-miterlimit="1.45" xml:space="preserve">&lt;&lt;Blockchain&gt;&gt;</text>
      <rect x="443.5" y="191.8089" clip-path="url(#clipPath2)" fill="rgb(204,255,255)" width="132" height="85" stroke="none"/>
    </g>
    <g text-rendering="geometricPrecision" stroke-miterlimit="1.45" shape-rendering="geometricPrecision" font-family="sans-serif" transform="matrix(1,0,0,1,-356,-138)" stroke-linecap="butt">
      <text x="487.1523" xml:space="preserve" y="251.9476" clip-path="url(#clipPath2)" stroke="none">Through</text>
      <text x="467.4912" xml:space="preserve" y="267.9085" clip-path="url(#clipPath2)" stroke="none">QR, PUSH, etc.</text>
      <path fill="none" d="M696 259.8089 L696 381.3865" clip-path="url(#clipPath2)"/>
      <path d="M696 389.3865 L701 377.3865 L696 380.3865 L691 377.3865 Z" clip-path="url(#clipPath2)" stroke="none"/>
      <text x="700" xml:space="preserve" y="329.6778" clip-path="url(#clipPath2)" font-weight="bold" stroke="none">P310 - Present VP</text>
      <path fill="none" stroke-dasharray="6,2" d="M601 442.3865 L418.5 442.3865 L418.5 351.0108" clip-path="url(#clipPath2)"/>
      <path stroke-dasharray="6,2" d="M418.5 343.0108 L413.5 355.0108 L418.5 352.0108 L423.5 355.0108 Z" clip-path="url(#clipPath2)" stroke="none"/>
      <text x="485.7251" xml:space="preserve" y="459.4471" clip-path="url(#clipPath2)" stroke="none">Generate</text>
      <path fill="none" stroke-dasharray="6,2" d="M418.5 311.9716 L418.5 206.8089 L593 206.8089" clip-path="url(#clipPath2)"/>
      <path stroke-dasharray="6,2" d="M601 206.8089 L589 201.8089 L592 206.8089 L589 211.8089 Z" clip-path="url(#clipPath2)" stroke="none"/>
      <text x="490.7349" xml:space="preserve" y="223.8695" clip-path="url(#clipPath2)" stroke="none">Receive</text>
      <path fill="none" d="M791 442.3865 L966.5 442.3865" clip-path="url(#clipPath2)"/>
      <path d="M974.5 442.3865 L962.5 437.3865 L965.5 442.3865 L962.5 447.3865 Z" clip-path="url(#clipPath2)" stroke="none"/>
      <text x="847.4092" xml:space="preserve" y="435.4861" clip-path="url(#clipPath2)" font-weight="bold" stroke="none">Get VC Meta</text>
    </g>
  </g>
</svg>
